<svg xmlns="http://www.w3.org/2000/svg" width="128" height="128" viewBox="0 0 128 128">
  <defs>
    <radialGradient id="bg" cx="50%" cy="40%" r="75%">
      <stop offset="0%" stop-color="#1c2126"/>
      <stop offset="100%" stop-color="#0a0c0e"/>
    </radialGradient>
    <linearGradient id="chevron" x1="0%" y1="0%" x2="100%" y2="100%">
      <stop offset="0%" stop-color="#5be7c4"/>
      <stop offset="100%" stop-color="#2c8f79"/>
    </linearGradient>
  </defs>
  <rect width="128" height="128" rx="22" fill="url(#bg)"/>
  <path d="M64 14 L112 40 V78 C112 100 90 112 64 118 C38 112 16 100 16 78 V40 Z"
        fill="none" stroke="#3a4046" stroke-width="3"/>
  <path d="M64 14 L112 40 V78 C112 100 90 112 64 118 C38 112 16 100 16 78 V40 Z"
        fill="url(#chevron)" opacity="0.08"/>
  <path d="M40 56 L64 34 L88 56" fill="none" stroke="#5be7c4" stroke-width="7" stroke-linecap="round" stroke-linejoin="round"/>
  <path d="M40 80 L64 58 L88 80" fill="none" stroke="#f2a65a" stroke-width="7" stroke-linecap="round" stroke-linejoin="round"/>
  <circle cx="64" cy="66" r="4" fill="#e0483e"/>
</svg>
